<svg id="Layer_1_copy_2" data-name="Layer 1 copy 2" xmlns="http://www.w3.org/2000/svg" viewBox="0 0 1017.6 193.48"><defs><style>.cls-1{fill:#fff;}.cls-2{fill:#c40000;}</style></defs><title>longlong</title><path class="cls-1" d="M765.35,62.44H735.14V37.27h90.62V62.44H790.52V158.1H765.35Z"/><path class="cls-1" d="M815.86,37.27h28.42l28.07,90.25,27.89-90.25h26.47L886.92,155.58H855.83Z"/><path class="cls-2" d="M91,156.52a16.31,16.31,0,0,1,1.41-2.92,48.09,48.09,0,0,1,2.82-4.46,38.22,38.22,0,0,1,3.28-4.1c1.13-1.22,2-1.83,2.63-1.83q2.07-.18,2.16,1.74c.06,1.27.06,2.7,0,4.28a18.66,18.66,0,0,0,.28,4.28c.25,1.27,1.25,1.79,3,1.55q1.88-.18,3.1-2.92a25.17,25.17,0,0,0,1.78-5.83l.38-2.55a27.68,27.68,0,0,0,.09-7.47c-.31-2.19-.66-4.5-1-6.93l.56-1.09c2.63-.24,4.23.3,4.79,1.64a11.5,11.5,0,0,1,.85,4.55,23.85,23.85,0,0,0,.37,4.38c.25,1.34,1.44,1.89,3.57,1.64h.38c.37-.49.78-1,1.22-1.64a7.4,7.4,0,0,0,1-2.19l.56-3.1,1.13-.18a20.58,20.58,0,0,1,7.51.64,23,23,0,0,0,8.08.64,34.62,34.62,0,0,0,5.44-.91,25.38,25.38,0,0,0,5.64-2.1,15.8,15.8,0,0,0,4.5-3.46,10.36,10.36,0,0,0,2.44-5.2,6.72,6.72,0,0,0-2.91-6.92,29,29,0,0,0-9.2-3.83q-5.73-1.45-12.58-2.92a64.41,64.41,0,0,1-13-4.19A29.09,29.09,0,0,1,111,97.47q-4.22-4.92-4.79-13.31a9.71,9.71,0,0,0-.18-1.37,5.65,5.65,0,0,1,.18-2.45l1.32-9.3q.38-1.28.66-2.1a5.36,5.36,0,0,0,.28-1l.18-1.09a21.56,21.56,0,0,0,1.23-3.1,12,12,0,0,1,1-2.55,18.44,18.44,0,0,1,1.31-2.46c.75-1.27,1.57-2.65,2.45-4.1a32.4,32.4,0,0,1,2.72-3.92C118.28,49.57,119,49,119.5,49a5.34,5.34,0,0,1,2.44,1.18c1.12.79,1.63,1.55,1.5,2.28v.19a23.37,23.37,0,0,1-2.91,5.83,14.21,14.21,0,0,0-2.35,5.64,12,12,0,0,0-.28,3.47c.06,1.34.16,2.73.28,4.19s.28,2.83.47,4.1a17.68,17.68,0,0,0,.66,3,9.7,9.7,0,0,1,1.5,1.18c.75.67,1.06,1.07.94,1.19l-.37,2a10.24,10.24,0,0,1-1.22,3c-.57.91-1.2,1.82-1.88,2.73a27.22,27.22,0,0,0-1.88,2.83,8,8,0,0,0-1,3.28c0,.73,0,1.7.09,2.92a2.07,2.07,0,0,0,1.6,2.18h.37c1.13-.12,2.22-1.3,3.29-3.55a53.61,53.61,0,0,0,2.82-7.48c.81-2.73,1.46-5.28,2-7.65s.81-3.73.94-4.1l1.31-15.13a13.57,13.57,0,0,1,2.35-6,25.33,25.33,0,0,0,3.1-6.38l.56-2.37a13.36,13.36,0,0,0,.28-1.37,6.78,6.78,0,0,1,.47-1.54,30.87,30.87,0,0,1,2.26-8.12q1.68-3.91,6.76-5.37a79.94,79.94,0,0,1,8.35-1.46c2.94-.36,5.92-.67,8.92-.91l16-1.82c1.5.24,2.37,1.51,2.63,3.83a49.14,49.14,0,0,1,.18,7.47c-.12,2.67-.16,5.07-.09,7.19s.72,3.13,2,3a3.48,3.48,0,0,0,2.16-1.64c.69-1,1.35-1.88,2-2.73l.94-7.66a14.48,14.48,0,0,1,2.16-3.73,24.16,24.16,0,0,0,2.35-3.74c0-.36.31-.67.94-.91a16.92,16.92,0,0,1,3.66.64q2.53.63,5.17,1.55a33.9,33.9,0,0,1,4.69,2c1.38.73,2.07,1.4,2.07,2l-.57,1.1L195,54.64c-1.12,1.34-2.19,2.67-3.19,4a16,16,0,0,1-3.94,3.64,24.9,24.9,0,0,0-10.24-5.1,35.68,35.68,0,0,0-12.49-.73A15.2,15.2,0,0,0,157,59.28a11.31,11.31,0,0,0-4.22,7.21q-.57,4.74,1.59,7.1A11.87,11.87,0,0,0,160.16,77,39.2,39.2,0,0,0,168,78.24c2.82.18,5.42.46,7.8.82a54.55,54.55,0,0,1,11.27,3.55,37.65,37.65,0,0,1,9.95,6.29,25.66,25.66,0,0,1,6.57,8.93,20,20,0,0,1,1.13,11.66,59.91,59.91,0,0,1-7.7,23.06A63.22,63.22,0,0,1,181.85,150a77.17,77.17,0,0,1-20.76,11.67,94.87,94.87,0,0,1-24.5,5.65,45,45,0,0,1-5.82,0c-2.76-.12-5.86-.34-9.3-.64s-7-.76-10.8-1.36a91.15,91.15,0,0,1-10.14-2.19,30.17,30.17,0,0,1-7.23-2.92Q90.57,158.52,91,156.52Z"/><path class="cls-2" d="M198.42,171.93a22.78,22.78,0,0,1,3-7,58.8,58.8,0,0,1,4.49-6.65l.77-.19c.76-.12,1.24,0,1.43.29s.8.4,1.82.28l1-6.74c0-.26-.22-.48-.67-.66a1.75,1.75,0,0,0-1.24-.1,3.12,3.12,0,0,1,1.91-1.77c1-.44,1.79-.78,2.3-1l.76-6.56a3.85,3.85,0,0,0,1.72-2.63,4.81,4.81,0,0,0,.2-1.12l18.35-36.53a3,3,0,0,0,1.91-2.25,3.37,3.37,0,0,1,.77-2.24c.25-.5.76-1.47,1.52-2.91s1.53-3,2.3-4.59l2.1-4.5c.64-1.37,1.08-2.3,1.34-2.8l.57-.19c1.15-.12,1.73.12,1.73.75a12.21,12.21,0,0,1-.2,2.06l-5,20-.57,4.5c.12.37.51.56,1.15.56s1-.06,1.14-.19l1.53-.18,1.92-9.18.38-.94V97.18q.77-2.62,1.81-5.8a7.39,7.39,0,0,1,3-4.31l2.1-12.55,1.53-1.69.95,3c.13,0,.42.37.87,1.12a5.59,5.59,0,0,1,.66,1.31l-1.14,1.88L256,84.82a12.13,12.13,0,0,0-.19,2.06c0,.5.32.82,1,.94l.38-.19,1-1.12.38-1.51.19-2.24c.25-1,.45-1.9.57-2.72a7.42,7.42,0,0,1,1.15-2.72L263,59.15q-1.92-4.68-.77-11.8a25.16,25.16,0,0,1,3.54-8.71,60.89,60.89,0,0,1,5.83-8.33,5.75,5.75,0,0,0,1.24-1.22,1.33,1.33,0,0,1,1.06-.66l18.16-2.06v.94c1.53-.13,2.45.78,2.77,2.71a33.27,33.27,0,0,1,.29,6.84q-.2,3.95-.58,7.87a13.08,13.08,0,0,0,.39,5.81l2.48,4.68c.64.87.89,2.31.77,4.31l-.77,3.93a5.67,5.67,0,0,0,0,4.13q0,.18,1,.18a2.26,2.26,0,0,0,1.72-1.4,14.94,14.94,0,0,0,.95-2.72,4,4,0,0,0,.29-1.78,6.48,6.48,0,0,1-.09-1,24.37,24.37,0,0,0,.38-5.9c-.13-1.81-.32-3.53-.58-5.15s-.44-3.22-.57-4.78a18.34,18.34,0,0,1,.38-5.15,31.37,31.37,0,0,1,1.05-3.37q.87-2.43,2-5a34.7,34.7,0,0,1,2.49-4.59,4.26,4.26,0,0,1,2.86-2.24h.58a.85.85,0,0,0,.29.65c.19.19.34.22.47.09l2.49-1.12a2.16,2.16,0,0,1,2.1,1.12,18.53,18.53,0,0,1,1.34,2.06,129.7,129.7,0,0,1,4.78,20.14A135,135,0,0,0,326.13,68q4.59,16.11,8.89,30.63t8.7,30.63a13.56,13.56,0,0,0,.29,2.62c.19,1,.41,2,.66,2.9l.67,2.44a7.29,7.29,0,0,1,.29,1.22c.25.25.32.74.19,1.49l-.76,1.88a1.37,1.37,0,0,0,.28,1.31,3.49,3.49,0,0,0,2.2.75l2.87,11.61-.38,3.38-41.87,4.12-1.72-.57q-1-3.56-1.53-5.89c-.39-1.57-.7-3.16-1-4.78a27.34,27.34,0,0,1-.38-3.94l-.19-1.31a35.67,35.67,0,0,0-1.82-4.49q-.85-1.69-5.26-1.31c-1.27.24-2.58.55-3.92.93a41,41,0,0,1-4.11.94c-1,.12-1.59-.13-1.72-.75l-.76.94-10.33.93q-11.85,1.13-23.32,3.37-1.92.57-3.73,4.12t-3.73,7.69c-1.27,2.74-2.52,5.27-3.73,7.58s-2.38,3.53-3.53,3.66L198.8,173.8c-.38.12-.58-.12-.58-.75A2.49,2.49,0,0,1,198.42,171.93Zm87.49-91.86h-.39a3.36,3.36,0,0,0-1.35,1.31c-.38.62-.74,1.25-1.06,1.87s-.58,1.15-.77,1.59-.29.59-.29.47q-1.74,2.81-4,7.31t-4.15,8.71q-1.92,4.22-4.63,10.21l-2.9,18.54a10.89,10.89,0,0,1-1.54,4.87,13.29,13.29,0,0,0-1.74,5.06q3.48-.18,5-2.06a13.75,13.75,0,0,0,2.41-4.4,34.52,34.52,0,0,0,1.35-5.25,14.15,14.15,0,0,1,6.67-9.55,20.37,20.37,0,0,0,5.4-4.59,6.7,6.7,0,0,0,1.35-1.31c.39-.5.64-.75.77-.75l6.95-.94.2-2.06-6.18-27.54a2.66,2.66,0,0,1-.77-1.49Z"/><path class="cls-2" d="M372.91,32.78a3.14,3.14,0,0,1,2.65,1,12.91,12.91,0,0,1,2.25,3,35.72,35.72,0,0,1,1.67,3.52,13.31,13.31,0,0,0,1.07,2.28l-2.35,15.6a7.49,7.49,0,0,1,2,2.65,5.29,5.29,0,0,1,0,2.86,3.36,3.36,0,0,1-1.47,2.47,3.54,3.54,0,0,0-1.47,2.66,10.48,10.48,0,0,0,.3,2.66c.19.76.88,1.08,2.05,1h1l2.75-7.79,1.17-12.17a51.1,51.1,0,0,1,1-5.42A43.75,43.75,0,0,1,387.71,40a28.3,28.3,0,0,1,3.52-6.37,7.24,7.24,0,0,1,4.8-3.14l12.54-1.33,1.57,1.52c.13,0,.16.57.1,1.71s-.17,2.48-.3,4-.32,3.12-.59,4.76-.45,3-.58,4.18l-8.43,57.62v2.57c0,1.26-.06,2.62-.19,4.07s-.29,2.83-.49,4.16-.36,2.37-.49,3.12a21.81,21.81,0,0,0,.88,8.79,11.58,11.58,0,0,0,4.58,6,12.85,12.85,0,0,0,4.29,2.46q1.95.57,2.92,3.59a17.14,17.14,0,0,0,.29,2c.2,1.07.42,2.18.68,3.31s.72,2.71,1.37,4.73c-.13.25.32,1,1.36,2.27l-.39.94a8.13,8.13,0,0,1-.68,1.8,7.18,7.18,0,0,1-.68.94,5.8,5.8,0,0,0-.78,1.42,12,12,0,0,0-.59,3.22,3,3,0,0,1,1.47,0,2.29,2.29,0,0,0,.87.18,7.82,7.82,0,0,0,1.56-1.88,57.71,57.71,0,0,1,3.12-11,44,44,0,0,1,6.63-11.16,10.78,10.78,0,0,1,4-3.22,15.88,15.88,0,0,0,3.8-2.45,22.27,22.27,0,0,0,8.19-9.65,48.9,48.9,0,0,0,3.7-11.73l3.12-14.75h.39a1.87,1.87,0,0,0,1.75-1,3.75,3.75,0,0,0,.58-1.41c.26-.63.69-1.8,1.27-3.51a13.13,13.13,0,0,0,.88-3.49l1-7.57a54.37,54.37,0,0,1,2.63-6.9,31.2,31.2,0,0,0,2.25-6.9,7.42,7.42,0,0,0-1.08-4.54,13.43,13.43,0,0,0-3.21-3.6l3.9-25.34a4.31,4.31,0,0,1,2.72-4.07,21.64,21.64,0,0,1,5.26-1.41,7.84,7.84,0,0,0,1.76-.19c.52-.13,1.1-.25,1.75-.38l24.36-2.46a9.25,9.25,0,0,1,1.56-.19h2.29c1.3,0,1.76.45,1.37,1.33l-11.95,80.25a79.1,79.1,0,0,1-4.8,18.44,63.17,63.17,0,0,1-10.88,17.87c0,.64-.26.89-.78.76a26.27,26.27,0,0,0-5.29,5,30.85,30.85,0,0,1-5.29,5.23,70.65,70.65,0,0,1-23.71,14.64,116.23,116.23,0,0,1-26.26,5.9,82.23,82.23,0,0,1-18.12-.1,52.69,52.69,0,0,1-15.57-4.27,35,35,0,0,1-12.06-9A38.47,38.47,0,0,1,358,141.35a67.07,67.07,0,0,1-2-8.37,25.83,25.83,0,0,1-.19-8.37L368.8,37.53a6.83,6.83,0,0,1,1.37-3A3.93,3.93,0,0,1,372.91,32.78Z"/><path class="cls-2" d="M497.58,103.76a78.84,78.84,0,0,1,5.74-20.32A92.42,92.42,0,0,1,514.62,64a101.54,101.54,0,0,1,16.07-16.82,86.45,86.45,0,0,1,20.06-12.58,19.45,19.45,0,0,1,2,.47c1.17.32,2.53.67,4.09,1l3.12.76-.39,2.08-6,16.82a1.1,1.1,0,0,0,.39,1.23,11.09,11.09,0,0,0,1.36,1,7.36,7.36,0,0,1,1.37,1,2.26,2.26,0,0,1,.58,1.7,8.83,8.83,0,0,1-.58,3.21c-.39,1-.78,2.21-1.17,3.59a4.79,4.79,0,0,0,2.24-1.41,27.9,27.9,0,0,0,2.94-3.42,11.7,11.7,0,0,0,1-1.59,9.11,9.11,0,0,0,1.24-3.6l.2-3.77-.2-.76a16.32,16.32,0,0,0,2.14-3.4,29.93,29.93,0,0,0,2.83-6.81,71.1,71.1,0,0,1,2.53-7.37,30.34,30.34,0,0,1,3.7-6.62A14.79,14.79,0,0,1,580.17,24l15.19-1.51c2.59-.26,5.13-.41,7.59-.48a38.17,38.17,0,0,1,7.8.66,5,5,0,0,1,.87.19,6.64,6.64,0,0,1,1.37.57c.45.25.87.5,1.26.76s.59.44.59.56A45.91,45.91,0,0,1,616,29.19c.25,1.32,1.62,1.86,4.09,1.61,1.17-.13,1.81-.54,1.94-1.24a4.88,4.88,0,0,1,1.56-2.36h.59l1.17.57L620.1,63.11a10.17,10.17,0,0,1-5.26-1.22A11.39,11.39,0,0,1,610.75,59q-6.24-.95-11.3-1.42a57.29,57.29,0,0,0-11.69.29,49,49,0,0,0-15.87,4.25,57.72,57.72,0,0,0-14,9,52.94,52.94,0,0,0-10.61,12.47,39.21,39.21,0,0,0-5.46,14.75q-1.56,13,4.19,21.36t19.19,10.21l-.59,1.32c.52-.13,1.2-.28,2-.47a9.14,9.14,0,0,1,2-.29h.39c3.12.63,5.13,2.18,6,4.63a21.89,21.89,0,0,1,1.36,7.66c0,2.65-.09,5-.29,7s.23,3,1.27,2.84a4.17,4.17,0,0,0,3-2.18,21.1,21.1,0,0,0,2.14-4.53,38.23,38.23,0,0,0,1.36-5c.33-1.64.56-2.77.69-3.4.12-.13.84-.88,2.14-2.27l1.56-2.84a20,20,0,0,1,2.43-3.5,18.05,18.05,0,0,1,2.82-2.55c.52-.37,1.66-1,3.41-2s3.57-1.89,5.46-2.84,3.63-1.76,5.26-2.45a13.9,13.9,0,0,1,2.82-1l2-.19-4.68,30.05q-1,6.06-5.06,8.7a39.1,39.1,0,0,1-9.35,4.34l-5.26,2.09a73,73,0,0,1-13,3.21q-6.42.95-12.85,1.51a88.59,88.59,0,0,1-25.23-.94,44.93,44.93,0,0,1-21.13-9.83,60.77,60.77,0,0,1-10.62-10.59,40.8,40.8,0,0,1-6.33-11.91,47.53,47.53,0,0,1-2.34-13.89A111.42,111.42,0,0,1,497.58,103.76ZM544.09,74.3a7.9,7.9,0,0,1,.09,2.06c-.06.26.61.32,2,.19a6.26,6.26,0,0,0,4.06-2.25A7.58,7.58,0,0,0,552,70h-2.12a12.77,12.77,0,0,0-4,1.31A3.15,3.15,0,0,0,544.09,74.3Zm37.83-50.14a1.63,1.63,0,0,0-1.35.94c0,.5.32.75,1,.75s.83-.31.58-.94C582.5,24.41,582.44,24.16,581.92,24.16Z"/><path class="cls-2" d="M616.55,169.73l20-134.89,2.15-1.68,7.83-.94a17.14,17.14,0,0,0-.29,4.87c.06,2.5.2,5.12.39,7.87s.49,6.25.88,10.49l-.19,2.44a59.32,59.32,0,0,0-.79,11.52,60.16,60.16,0,0,1-.58,10.77,19.77,19.77,0,0,1-2.06,5.9A16.5,16.5,0,0,0,642,92V93.1c-.26,1.63.13,2.32,1.18,2.07h.39a1.26,1.26,0,0,0,1.17-.94l3.33-10.49c0,.13.26.19.78.19a27,27,0,0,0,2.94-1.31l.59-2.63a15.53,15.53,0,0,0-.1-3.93q-.3-1.87-.78-3.75a24.29,24.29,0,0,1-.69-3.84,15.21,15.21,0,0,1,.2-4.21l8.61-21.55V31.85l.2-.94L672.35,29l52.46-5.25.59.75c0,.13,0,.63.1,1.5s.1,1.94.1,3.18a18.24,18.24,0,0,1-.2,3l-4.11,21.92-1.37,1.68L678,60.14a24.51,24.51,0,0,0-2.84.56A2.61,2.61,0,0,0,673.32,63L671,79.24c-.14.75.12,1.16.78,1.22a8.13,8.13,0,0,0,2.54-.28c2.74-.25,4-.06,3.72.56L675.87,96.1a6.81,6.81,0,0,0,.2,2.72c.26,1.19.71,1.91,1.36,2.15q1.38-.93,2.65-4.4t2.54-7.3c.85-2.56,1.64-4.87,2.35-6.93s1.4-3.1,2.06-3.1l26.62-2.62a1.06,1.06,0,0,1,1,.1c.26.18.26.4,0,.65a4.15,4.15,0,0,1-.78,1.12L709.74,107l-1,1.68-39.55,3.75a6.62,6.62,0,0,0-1.56.38,12.29,12.29,0,0,0-2,1.68l-2.55,14a11.46,11.46,0,0,0-.29,2.53c-.07,1.31-.1,2.09-.1,2.34,0,.5.39.75,1.18.75q1.56,0,6.26-.28c3.13-.19,6.46-.4,10-.65s6.88-.5,10.08-.76,5.38-.43,6.56-.55l11-1.13,1.76.56-4.11,28.1a5.38,5.38,0,0,1-.49,1.78,4.66,4.66,0,0,1-2.05,2.16L650,168.79l-1.18-.56L618.31,171Z"/></svg>